<svg width="15" height="15" viewBox="0 0 15 15" fill="none" xmlns="http://www.w3.org/2000/svg">
<path d="M13.4413 11.5206C13.7094 11.5795 14.0171 11.6385 14.1263 11.9039C14.2355 12.1693 14.1561 12.4839 13.9774 12.7001C13.7987 12.9262 13.5406 13.0638 13.2627 13.1523C12.7862 13.2899 12.26 13.2407 11.8232 13.0245C11.9721 13.2604 12.121 13.4373 12.2104 13.6536C12.2898 13.8698 12.2898 14.1254 12.1508 14.3122C11.9622 14.5481 11.6048 14.5677 11.3169 14.4989C10.7809 14.381 10.2944 14.0468 9.98668 13.5946C9.76828 13.9583 9.63923 14.2728 9.42083 14.5382C9.20243 14.8036 8.88476 15.0002 8.54724 15.0002C8.26928 15.0002 7.99131 14.843 7.84241 14.5972C7.6935 14.3613 7.68357 14.0468 7.8027 13.801C7.38576 14.1647 6.94896 14.4891 6.4526 14.6955C6.26398 14.7742 6.05551 14.8331 5.85697 14.784C5.59886 14.725 5.39039 14.4989 5.3209 14.2434C5.25141 13.9878 5.29112 13.7126 5.38046 13.457C4.9933 13.6044 4.58628 13.8109 4.14949 13.9485C3.93109 14.0173 3.69284 14.0664 3.46451 14.0369C3.23619 14.0074 3.00786 13.8797 2.91851 13.6634C2.82917 13.4668 2.87881 13.2309 2.97808 13.0441C3.08728 12.8574 3.24611 12.7001 3.40495 12.5527C3.10713 12.5723 2.86888 12.6706 2.6207 12.7493C2.37252 12.8279 2.11441 12.8967 1.8563 12.8672C1.5982 12.8377 1.34009 12.7001 1.23089 12.4642C1.15147 12.3069 1.1614 12.1103 1.23089 11.9432C1.30038 11.7761 1.46914 11.668 1.64783 11.6287C1.14155 11.5599 0.615404 11.3731 0.218316 11.0389C0.0991899 10.9308 -0.0199365 10.7932 -0.0100093 10.6359C0.00984509 10.4295 0.228243 10.3017 0.426788 10.2624C0.764312 10.1936 1.12169 10.2624 1.39965 10.459C0.714676 8.69945 0.813948 6.65489 1.68754 5.01334C2.56114 3.36197 4.19912 2.12344 6.11507 1.62213C5.97609 1.50417 5.82718 1.38622 5.73784 1.22894C5.6485 1.07167 5.60879 0.865245 5.6882 0.707971C5.7974 0.48189 6.10515 0.413083 6.3434 0.49172C6.58165 0.570357 6.77027 0.757119 6.9291 0.943882C7.08794 1.13064 7.23685 1.3469 7.44532 1.48451C7.3659 1.20928 7.28648 0.924223 7.32619 0.639164C7.3659 0.354105 7.55452 0.0690461 7.84241 0.019898C8.13029 -0.0390798 8.40826 0.157513 8.6068 0.363935C8.92447 0.688312 9.1528 1.10116 9.37119 1.65161C9.40098 1.37639 9.44069 1.09133 9.58959 0.865245C9.74843 0.639164 10.0562 0.49172 10.3044 0.609675C10.5128 0.707971 10.6121 0.963541 10.5922 1.18962C10.5724 1.4157 10.4632 1.63196 10.5128 1.96616C12.0118 2.54611 13.2527 3.76498 13.8285 5.25909C14.4043 6.75319 14.3149 8.47337 13.5605 9.9773C13.9476 10.0068 14.3447 10.0461 14.6922 10.223C14.8014 10.282 14.9106 10.3508 14.9602 10.4688C15.0595 10.6752 14.9404 10.9111 14.7815 11.0684C14.4639 11.3928 13.9873 11.55 13.4314 11.5402L13.4413 11.5206Z" fill="#FFD060"/>
<path d="M3.49437 9.02373C4.61614 9.58402 4.55658 11.0093 3.12706 10.8127C1.6082 10.5965 1.91594 8.24719 3.49437 9.02373Z" fill="#FFAB96"/>
<path d="M5.89677 6.44822C6.10524 6.74311 6.28393 7.07732 6.33356 7.44101C6.39313 7.80471 6.32364 8.18806 6.09531 8.47312C5.88684 8.72869 5.5791 8.88597 5.2515 8.95477C4.73528 9.05307 4.15951 8.91546 3.78227 8.55176C3.38519 8.17823 3.21642 7.58846 3.3554 7.06749C3.49438 6.54652 3.93118 6.11401 4.45732 5.9764C4.98346 5.83879 5.5791 6.00589 5.89677 6.44822Z" fill="#FDFEFE"/>
<path d="M4.83457 8.69923C5.52538 8.69923 6.0854 8.14472 6.0854 7.4607C6.0854 6.77668 5.52538 6.22217 4.83457 6.22217C4.14375 6.22217 3.58374 6.77668 3.58374 7.4607C3.58374 8.14472 4.14375 8.69923 4.83457 8.69923Z" fill="#96CDD6"/>
<path d="M4.73527 8.34546C5.29998 8.34546 5.75777 7.89217 5.75777 7.33301C5.75777 6.77385 5.29998 6.32056 4.73527 6.32056C4.17056 6.32056 3.71277 6.77385 3.71277 7.33301C3.71277 7.89217 4.17056 8.34546 4.73527 8.34546Z" fill="#252C40"/>
<path d="M4.39776 6.91025C4.29849 6.83162 4.14958 6.84145 4.06023 6.92991C3.97089 7.01838 3.97089 7.17565 4.06023 7.26412C4.14958 7.35259 4.30841 7.35259 4.38783 7.26412C4.47718 7.17565 4.4871 6.98889 4.38783 6.91025H4.39776Z" fill="#FDFEFE"/>
<path d="M12.7167 6.44822C12.9252 6.74311 13.1039 7.07732 13.1535 7.44101C13.2131 7.80471 13.1436 8.18806 12.9153 8.47312C12.7068 8.72869 12.3991 8.88597 12.0715 8.95477C11.5553 9.05307 10.9795 8.91546 10.6023 8.55176C10.2052 8.17823 10.0364 7.58846 10.1754 7.06749C10.3144 6.54652 10.7512 6.11401 11.2773 5.9764C11.8034 5.83879 12.3991 6.00589 12.7167 6.44822Z" fill="#FDFEFE"/>
<path d="M11.6545 8.69923C12.3454 8.69923 12.9054 8.14472 12.9054 7.4607C12.9054 6.77668 12.3454 6.22217 11.6545 6.22217C10.9637 6.22217 10.4037 6.77668 10.4037 7.4607C10.4037 8.14472 10.9637 8.69923 11.6545 8.69923Z" fill="#96CDD6"/>
<path d="M11.5552 8.34546C12.12 8.34546 12.5777 7.89217 12.5777 7.33301C12.5777 6.77385 12.12 6.32056 11.5552 6.32056C10.9905 6.32056 10.5327 6.77385 10.5327 7.33301C10.5327 7.89217 10.9905 8.34546 11.5552 8.34546Z" fill="#252C40"/>
<path d="M11.2177 6.91025C11.1185 6.83162 10.9696 6.84145 10.8802 6.92991C10.7909 7.01838 10.7909 7.17565 10.8802 7.26412C10.9696 7.35259 11.1284 7.35259 11.2078 7.26412C11.2972 7.17565 11.3071 6.98889 11.2078 6.91025H11.2177Z" fill="#FDFEFE"/>
<path d="M10.9001 8.84672C10.9001 8.84672 10.8603 8.93518 10.8306 8.9745C10.8107 8.94501 10.7809 8.92535 10.7511 8.90569C10.6916 8.87621 10.6221 8.88604 10.5526 8.88604C9.82792 8.91552 9.11316 8.94501 8.3984 8.9745C8.55723 9.16126 8.74585 9.32837 8.95432 9.46598C9.06352 9.54462 9.18265 9.61343 9.3117 9.6724C9.51025 9.7707 9.7485 9.83951 9.93712 9.74121C10.0265 9.69206 10.096 9.61343 10.1357 9.52496C10.1754 9.44632 10.2051 9.35786 10.2349 9.26939C10.3044 9.41683 10.3441 9.58394 10.3143 9.75104C10.2746 9.97712 10.1059 10.1737 9.87755 10.2229C9.71872 10.2622 9.54995 10.2229 9.40105 10.1442C9.25214 10.0754 9.12308 9.96729 8.99403 9.869C8.82527 9.74121 8.64658 9.62326 8.49767 9.47581C8.33884 9.32837 8.20978 9.16126 8.13036 8.96467C8.10058 8.87621 8.08073 8.78774 8.10058 8.69927C8.13036 8.59115 8.22964 8.51251 8.32891 8.4437C8.71607 8.15864 9.13301 7.9129 9.52017 7.58853C9.6393 7.49023 9.79813 7.45091 9.94704 7.50989C10.1158 7.58853 10.2151 7.77529 10.3243 7.92273C10.493 8.14881 10.7313 8.33558 10.8603 8.58132C10.9001 8.65995 10.9398 8.74842 10.9199 8.83689L10.9001 8.84672Z" fill="#DE754C"/>
<path d="M10.6122 9.08269C10.4831 9.11218 10.354 9.11218 10.1257 9.12201C10.1654 9.17116 10.1952 9.22031 10.225 9.27929C10.1952 9.36775 10.1654 9.45622 10.1257 9.53486C9.99666 9.35792 9.78819 9.23997 9.55987 9.23014C9.33154 9.22031 9.09329 9.30878 8.94438 9.48571C8.73591 9.34809 8.54729 9.18099 8.38846 8.99423C9.10322 8.96474 9.8279 8.93525 10.5427 8.90576C10.6122 8.90576 10.6816 8.90576 10.7412 8.92542C10.771 8.93525 10.8008 8.96474 10.8206 8.99423C10.7611 9.04338 10.6916 9.08269 10.6122 9.10235V9.08269Z" fill="#6B2526"/>
<path d="M10.1257 9.52494C10.0761 9.6134 10.0165 9.69204 9.92719 9.74119C9.73857 9.83949 9.50032 9.77068 9.30178 9.67238C9.18265 9.61341 9.06352 9.5446 8.9444 9.46596C9.0933 9.29886 9.33156 9.20056 9.55988 9.21039C9.77828 9.22022 9.99668 9.33818 10.1257 9.51511V9.52494Z" fill="#FFAB96"/>
<path d="M9.56982 8.01129C9.54004 8.13907 9.47055 8.2472 9.36135 8.31601C9.32164 8.34549 9.272 8.36515 9.22237 8.35532C9.17273 8.35532 9.13302 8.29635 9.14295 8.2472C9.15288 8.21771 9.18266 8.19805 9.21244 8.18822C9.24222 8.17839 9.272 8.16856 9.30178 8.1489C9.34149 8.11941 9.36135 8.07026 9.37128 8.03095C9.39113 7.9818 9.40106 7.93265 9.44077 7.90316C9.48047 7.87367 9.5996 7.87367 9.56982 8.01129Z" fill="#252C40"/>
<path d="M10.2945 9.75102C10.2945 9.75102 10.3044 9.66255 10.3044 9.61341C10.2052 9.77068 9.93712 10.0754 9.4904 10.0066C9.01389 9.93778 8.36862 9.26937 8.13037 8.99414C8.20979 9.1809 8.33884 9.33818 8.48775 9.47579C8.64659 9.62324 8.81535 9.74119 8.98411 9.86898C9.11316 9.96727 9.24222 10.0656 9.39113 10.1442C9.54003 10.213 9.7088 10.2523 9.86763 10.2228C10.086 10.1737 10.2548 9.9771 10.3044 9.75102H10.2945Z" fill="#CC5E33"/>
<path d="M13.3819 10.5081C13.7591 10.4589 14.0172 10.2722 14.186 10.0362C13.9874 9.99692 13.779 9.97726 13.5705 9.95761C13.779 9.54476 13.9378 9.12209 14.0371 8.68958C13.8087 8.52248 13.4613 8.49299 13.0146 8.71907C11.8928 9.27936 11.9524 10.7047 13.3819 10.5081Z" fill="#FFAB96"/>
</svg>
