<svg width="22" height="26" viewBox="0 0 22 26" fill="none" xmlns="http://www.w3.org/2000/svg">
<path fill-rule="evenodd" clip-rule="evenodd" d="M14.2343 14.9211C13.9733 15.6652 13.6473 16.3849 13.2602 17.0719C15.0908 16.4808 17.496 16.9788 18.7164 18.2977C17.5699 20.8726 13.3176 22.8674 11.1259 19.8739C10.7427 20.2537 10.337 20.6101 9.91094 20.941C11.7169 21.2967 13.4681 22.5637 14.1084 24.1562C11.955 26.3097 7.0679 26.8405 5.8995 23.1301C4.03378 23.7846 2.07991 24.1536 0.10398 24.2246L0 22.4597C11.5527 21.8467 15.3589 13.0057 12.8634 5.00472C11.6622 3.26716 13.4873 0.626616 15.1291 0C16.0759 1.57338 16.905 4.71194 14.4532 5.54378C14.6224 6.17453 14.7576 6.81393 14.8582 7.4592C15.6982 6.01716 17.9448 5.20994 19.395 5.46716C19.395 7.5878 18.2759 11.2709 15.0552 9.97387C15.0587 10.7782 14.9983 11.5816 14.8746 12.3764C16.4754 10.7893 19.6303 10.5978 21.3077 11.9769C20.5333 14.6475 16.8065 17.4057 14.2343 14.9211ZM10.803 9.4485C9.47586 9.28706 9.76865 7.40447 11.0137 7.5577C12.2587 7.71094 12.0124 9.58531 10.803 9.4485ZM10.3296 11.8647C11.8783 12.0535 11.5801 14.4149 10.056 14.2288C8.4087 14.0127 8.77263 11.6594 10.3296 11.851V11.8647ZM6.92288 18.4318C4.85149 18.1773 5.30845 15.2358 7.25397 15.4766C9.19949 15.7174 8.81641 18.6617 6.92288 18.4291V18.4318Z" fill="#B031D7"/>
</svg>
